<svg width="25" height="26" viewBox="0 0 25 26" fill="none" xmlns="http://www.w3.org/2000/svg">
<path d="M16.125 9.125C16.125 8.46094 16.6719 7.875 17.375 7.875C18.0391 7.875 18.625 8.46094 18.625 9.125C18.625 9.82812 18.0391 10.375 17.375 10.375C16.6719 10.375 16.125 9.82812 16.125 9.125ZM16.125 17.25C15.7344 17.25 15.3828 17.25 15.0312 17.1719L13.9375 18.2266C13.7812 18.4219 13.5469 18.5 13.3125 18.5H11.75V20.0625C11.75 20.6094 11.3203 21 10.8125 21H9.25V22.5625C9.25 23.1094 8.82031 23.5 8.3125 23.5H3.9375C3.39062 23.5 3 23.1094 3 22.5625V18.1875C3 17.9531 3.07812 17.7188 3.27344 17.5234L9.32812 11.4688C9.25 11.1172 9.25 10.7656 9.25 10.375C9.25 6.58594 12.2969 3.5 16.125 3.5C19.9141 3.5 23 6.58594 23 10.375C23 14.2031 19.9141 17.25 16.125 17.25ZM16.125 15.375C18.8594 15.375 21.125 13.1484 21.125 10.375C21.125 7.64062 18.8594 5.375 16.125 5.375C13.3516 5.375 11.125 7.64062 11.125 10.375C11.125 10.6484 11.125 10.9219 11.1641 11.1953L11.3203 12.1328L4.83594 18.5781V21.625H7.33594V19.125H9.83594V16.625H12.9219L14.3672 15.1797L15.3047 15.3359C15.5781 15.375 15.8516 15.375 16.125 15.375Z" fill="#171717"/>
</svg>
